<?xml version="1.0" encoding="utf-8"?>
<!-- Generator: Adobe Illustrator 22.1.0, SVG Export Plug-In . SVG Version: 6.00 Build 0)  -->
<svg version="1.1" id="Layer_1" xmlns="http://www.w3.org/2000/svg" xmlns:xlink="http://www.w3.org/1999/xlink" x="0px" y="0px"
	 viewBox="0 0 16 16" enable-background="new 0 0 16 16" xml:space="preserve">
<path fill="#873C86" d="M10,4c0,0.552-0.104,1.072-0.312,1.559C9.479,6.046,9.194,6.47,8.832,6.832
	C8.47,7.194,8.046,7.479,7.559,7.688C7.071,7.896,6.552,8,6,8C5.542,8,5.099,8.06,4.672,8.18C4.245,8.3,3.847,8.468,3.477,8.684
	C3.106,8.9,2.77,9.16,2.465,9.465s-0.565,0.643-0.781,1.012c-0.216,0.37-0.384,0.769-0.504,1.195C1.06,12.1,1,12.542,1,13H0
	c0-0.63,0.093-1.234,0.277-1.812s0.445-1.11,0.781-1.598c0.336-0.486,0.742-0.918,1.219-1.293s1.007-0.677,1.59-0.906
	C3.575,7.203,3.313,6.986,3.082,6.738C2.851,6.491,2.655,6.223,2.496,5.934S2.215,5.337,2.129,5.012C2.043,4.687,2,4.349,2,4
	c0-0.552,0.104-1.071,0.312-1.559C2.521,1.955,2.806,1.53,3.168,1.168C3.53,0.806,3.954,0.521,4.441,0.312C4.929,0.104,5.448,0,6,0
	s1.071,0.104,1.559,0.312C8.046,0.521,8.47,0.806,8.832,1.168C9.194,1.53,9.479,1.955,9.688,2.441C9.896,2.929,10,3.448,10,4z M6,7
	c0.411,0,0.8-0.078,1.164-0.234s0.684-0.371,0.957-0.645S8.609,5.53,8.766,5.168C8.922,4.806,9,4.417,9,4
	c0-0.411-0.078-0.799-0.234-1.164C8.609,2.472,8.395,2.152,8.121,1.879S7.528,1.391,7.164,1.234S6.411,1,6,1
	C5.583,1,5.194,1.078,4.832,1.234s-0.68,0.371-0.953,0.645S3.391,2.472,3.234,2.836C3.078,3.201,3,3.589,3,4
	c0,0.417,0.078,0.806,0.234,1.168c0.156,0.362,0.371,0.68,0.645,0.953S4.47,6.609,4.832,6.766S5.583,7,6,7z M16,8.273v2.539
	c0,0.547-0.099,1.064-0.297,1.551c-0.198,0.487-0.462,0.938-0.793,1.352s-0.708,0.788-1.133,1.121
	c-0.425,0.334-0.863,0.62-1.316,0.859L12,15.938l-0.469-0.242c-0.453-0.234-0.892-0.52-1.316-0.855s-0.801-0.712-1.129-1.129
	c-0.328-0.416-0.591-0.868-0.789-1.355C8.099,11.869,8,11.354,8,10.812V8.273c0.183,0,0.379,0.003,0.59,0.008
	c0.211,0.005,0.422,0.003,0.633-0.008C9.434,8.263,9.64,8.236,9.84,8.191c0.2-0.044,0.384-0.116,0.551-0.215
	c0.261-0.151,0.519-0.262,0.773-0.332S11.698,7.539,12,7.539c0.308,0,0.589,0.037,0.844,0.109c0.255,0.073,0.516,0.185,0.781,0.336
	c0.161,0.094,0.343,0.163,0.543,0.207c0.2,0.044,0.406,0.072,0.617,0.082c0.211,0.011,0.421,0.013,0.629,0.008
	C15.622,8.276,15.817,8.273,16,8.273z M15,10.812V9.273c-0.344,0-0.675-0.031-0.992-0.094S13.383,9,13.086,8.828
	c-0.177-0.104-0.351-0.178-0.52-0.223C12.397,8.562,12.208,8.539,12,8.539c-0.198,0-0.383,0.022-0.555,0.066
	C11.273,8.65,11.102,8.722,10.93,8.82c-0.302,0.172-0.613,0.291-0.934,0.355C9.676,9.241,9.344,9.273,9,9.273v1.539
	c0,0.448,0.087,0.871,0.262,1.27s0.403,0.769,0.688,1.109c0.284,0.342,0.604,0.648,0.961,0.922s0.72,0.507,1.09,0.699
	c0.364-0.192,0.727-0.426,1.086-0.699s0.681-0.58,0.965-0.922c0.284-0.341,0.513-0.711,0.688-1.109S15,11.261,15,10.812z"/>
</svg>
