<svg xmlns="http://www.w3.org/2000/svg" viewBox="0 0 400 140">
  <defs>
    <style>
      .cls-1 {
        fill: #8cd6ef;
      }

      .cls-2, .cls-4, .cls-8 {
        fill: #fff;
      }

      .cls-11, .cls-2 {
        stroke: #2bc7f4;
      }

      .cls-10, .cls-11, .cls-2, .cls-3, .cls-8 {
        stroke-miterlimit: 10;
        stroke-width: 2px;
      }

      .cls-10, .cls-11, .cls-3, .cls-7 {
        fill: none;
      }

      .cls-3, .cls-8 {
        stroke: #556a8a;
      }

      .cls-5 {
        fill: #bad80a;
      }

      .cls-6 {
        fill: #556a8a;
      }

      .cls-9 {
        fill: #2bc7f4;
      }

      .cls-10 {
        stroke: #fff;
      }
    </style>
  </defs>
  <title>biztallk-host-integration-popular-downloads</title>
  <g id="ICONS">
    <g>
      <path class="cls-1" d="M283,40.21c-1-12.73-11-22.71-23.06-22.71-9,0-16.75,5.49-20.59,13.51a22.42,22.42,0,0,0-12.3-3.68c-10.92,0-27.1,9.72-26.69,27.61-2.1-.7-12.1-.14-14.42-.14-12,0-10.17.3-10.17,12.81a22.73,22.73,0,0,0,12.55,20.52,20,20,0,0,0,6.77,2l.55.05a125.83,125.83,0,0,0,13.92.88h70.36c1.56,0,3.09-.75,4.56-1.12,10.81-2.24,19-12.46,19-24.73C303.47,52.38,294.55,41.8,283,40.21Z"/>
      <g>
        <path class="cls-2" d="M145.62,68.54h3c-1.49-3.73-3-8.21-3-11.94A27.53,27.53,0,0,1,173.21,29,26.76,26.76,0,0,1,200,52.87a29.9,29.9,0,0,1,20.88-8.95c14.16,0,26.83,11.94,27.58,26.11a37.22,37.22,0,0,1,8.94-1.49c15.66,0,27.59,11.94,27.59,27.6,0,14.92-11.93,26.86-27.59,26.86H145.62C130.71,123,118,111.06,118,96.14a27.53,27.53,0,0,1,27.58-27.6"/>
        <path class="cls-3" d="M256.14,37h15.72A4.21,4.21,0,0,1,276,41.27v9c0,2.36-1.85,3.72-4.14,3.72h-8.64L259,59V54h-2.86c-2.29,0-4.14-1.36-4.14-3.72v-9A4.21,4.21,0,0,1,256.14,37Z"/>
        <g>
          <path class="cls-4" d="M157,63a29,29,0,1,0-29,29A29,29,0,0,0,157,63Z"/>
          <path class="cls-5" d="M123.52,34.5a29.71,29.71,0,0,0-22.75,19.83c-.3.89-.55,1.79-.76,2.67h58c-.2-.88-.46-1.78-.76-2.67A29.72,29.72,0,0,0,134.46,34.5Z"/>
          <path class="cls-3" d="M158,63.5a29,29,0,1,0-29,29A29,29,0,0,0,158,63.5Z"/>
          <g>
            <rect class="cls-6" x="128" y="46.79" width="2" height="0.14"/>
            <polygon class="cls-6" points="129.07 76 115.44 62.37 116.86 60.96 128 72.1 128 43.07 130 43.07 130 72.24 141.14 61.1 142.56 62.51 129.07 76"/>
          </g>
          <rect class="cls-7" x="97" y="32" width="64" height="64"/>
          <rect class="cls-6" x="116" y="79" width="26" height="2"/>
        </g>
        <g>
          <path class="cls-8" d="M225,59H175a4,4,0,0,0-4,4v37a4,4,0,0,0,4,4h5v11l11-11h38V63A4,4,0,0,0,225,59Z"/>
          <path class="cls-9" d="M231,85H203a3,3,0,0,0-3,3v21a3,3,0,0,0,3,3h3v8l8-8h17a3,3,0,0,0,3-3V88A3,3,0,0,0,231,85Z"/>
          <g>
            <circle class="cls-10" cx="218" cy="95" r="5"/>
            <path class="cls-10" d="M210,108a8,8,0,0,1,16,0"/>
          </g>
          <line class="cls-11" x1="177" y1="68" x2="196" y2="68"/>
          <line class="cls-11" x1="177" y1="74" x2="217" y2="74"/>
          <line class="cls-11" x1="177" y1="80" x2="217" y2="80"/>
          <path class="cls-8" d="M225,59H175a4,4,0,0,0-4,4v37a4,4,0,0,0,4,4h5v11l11-11h38V63A4,4,0,0,0,225,59Z"/>
          <path class="cls-9" d="M231,85H203a3,3,0,0,0-3,3v21a3,3,0,0,0,3,3h3v8l8-8h17a3,3,0,0,0,3-3V88A3,3,0,0,0,231,85Z"/>
          <g>
            <circle class="cls-10" cx="218" cy="95" r="5"/>
            <path class="cls-10" d="M210,108a8,8,0,0,1,16,0"/>
          </g>
          <line class="cls-11" x1="177" y1="68" x2="196" y2="68"/>
          <line class="cls-11" x1="177" y1="74" x2="217" y2="74"/>
          <line class="cls-11" x1="177" y1="80" x2="217" y2="80"/>
        </g>
      </g>
    </g>
  </g>
</svg>
