<svg id="ICONS-64x" xmlns="http://www.w3.org/2000/svg" viewBox="0 0 64 64">
  <defs>
    <style>
      .cls-1 {
        fill: #fff;
      }

      .cls-2 {
        fill: #e5e5e5;
      }

      .cls-3 {
        fill: none;
        stroke: #556a8a;
        stroke-miterlimit: 10;
        stroke-width: 2px;
      }

      .cls-4 {
        fill: #556a8a;
      }
    </style>
  </defs>
  <title>i_xplat-code</title>
  <path class="cls-1" d="M59.13,7H4.88A3.86,3.86,0,0,0,1,10.81V44.19A3.86,3.86,0,0,0,4.88,48H59.13A3.86,3.86,0,0,0,63,44.19V10.81A3.86,3.86,0,0,0,59.13,7Z"/>
  <rect class="cls-2" x="2" y="8" width="6" height="39"/>
  <rect class="cls-2" x="56" y="8" width="6" height="39"/>
  <path class="cls-3" d="M59.13,7H4.88A3.86,3.86,0,0,0,1,10.81V44.19A3.86,3.86,0,0,0,4.88,48H59.13A3.86,3.86,0,0,0,63,44.19V10.81A3.86,3.86,0,0,0,59.13,7Z"/>
  <polygon class="cls-4" points="45 55 19 55 16 57 48 57 45 55"/>
  <polygon class="cls-4" points="33.5 55 30.5 55 31 48 33 48 33.5 55"/>
  <path class="cls-4" d="M23,39V33a7,7,0,0,0-1.14-4,4.24,4.24,0,0,0-.91-1,4.24,4.24,0,0,0,.91-1A7,7,0,0,0,23,23V17a4.19,4.19,0,0,1,1-3,3,3,0,0,1,2-1l-.43-1.45a5,5,0,0,0-3.32,1.5C21.38,14,21,15.29,21,17.53V23a5.1,5.1,0,0,1-1,2.82,2.16,2.16,0,0,1-1.6.94L17,27v2l1.44.24a2.16,2.16,0,0,1,1.6.94A5.1,5.1,0,0,1,21,33v5.47c0,2.24.38,3.58,1.25,4.48a5,5,0,0,0,3.32,1.5L26,43a3,3,0,0,1-2-1A4.19,4.19,0,0,1,23,39Z"/>
  <path class="cls-4" d="M42,39V33a7,7,0,0,1,1.14-4,4.24,4.24,0,0,1,.91-1,4.24,4.24,0,0,1-.91-1A7,7,0,0,1,42,23V17a4.19,4.19,0,0,0-1-3,3,3,0,0,0-2-1l.43-1.45a5,5,0,0,1,3.32,1.5c.88.9,1.25,2.23,1.25,4.48V23a5.1,5.1,0,0,0,1,2.82,2.16,2.16,0,0,0,1.6.94L48,27v2l-1.44.24a2.16,2.16,0,0,0-1.6.94A5.1,5.1,0,0,0,44,33v5.47c0,2.24-.38,3.58-1.25,4.48a5,5,0,0,1-3.32,1.5L39,43a3,3,0,0,0,2-1A4.19,4.19,0,0,0,42,39Z"/>
</svg>
