<svg xmlns="http://www.w3.org/2000/svg" viewBox="0 0 64 64">
  <defs>
    <style>
      .cls-1 {
        fill: #fff;
      }

      .cls-2, .cls-3 {
        fill: none;
      }

      .cls-2 {
        stroke: #556a8a;
        stroke-miterlimit: 10;
        stroke-width: 2px;
      }

      .cls-4 {
        fill: #556a8a;
      }
    </style>
  </defs>
  <title>i_data-gateway</title>
  <g id="ICONS-64x">
    <path class="cls-1" d="M51.38,22.82a11.64,11.64,0,0,0-3.19.45,10.64,10.64,0,0,0-16-11.37A11.61,11.61,0,0,0,22.83,7c-6,0-11.07,5-12,11.52C5.16,19.83,1,25.49,1,32.09S5.84,49,18.44,48H28V42.81L25.06,46l-4.25-4L31,31.06,41.19,42l-4.25,4L34,42.81V48H50.41C50.62,48,63,47.94,63,34.41A11.61,11.61,0,0,0,51.38,22.82Z"/>
    <path class="cls-2" d="M34,48H50.41C50.62,48,63,47.94,63,34.41A11.6,11.6,0,0,0,48.19,23.27a10.64,10.64,0,0,0-16-11.37A11.61,11.61,0,0,0,22.83,7c-6,0-11.07,5-12,11.52C5.16,19.83,1,25.49,1,32.09S5.84,49,18.44,48H28"/>
    <rect class="cls-3" width="64" height="64"/>
    <polygon class="cls-4" points="32 58.28 32 37.72 37.04 43.14 38.36 41.92 31 34 23.64 41.92 24.96 43.14 30 37.72 30 58.28 24.96 52.86 23.64 54.08 31 62 38.36 54.08 37.04 52.86 32 58.28"/>
  </g>
</svg>
