<svg id="Titles" xmlns="http://www.w3.org/2000/svg" viewBox="0 0 64 64">
  <defs>
    <style>
      .cls-1 {
        fill: #e5e5e5;
      }

      .cls-1, .cls-4 {
        stroke: #556a8a;
        stroke-miterlimit: 10;
        stroke-width: 2px;
      }

      .cls-2 {
        fill: #55d2f6;
      }

      .cls-2, .cls-3, .cls-4 {
        fill-rule: evenodd;
      }

      .cls-3 {
        fill: #ace8f9;
      }

      .cls-4 {
        fill: none;
      }
    </style>
  </defs>
  <title>i_threat-protection</title>
  <circle class="cls-1" cx="32" cy="32" r="31"/>
  <g>
    <path class="cls-2" d="M49.12,14.88a.68.68,0,0,0-.63-.63h-.95a11.85,11.85,0,0,1-6.64,2.21c-3.48,0-5.69-1.89-7.27-3.15-.31-.31-.64-.91-.95-1.22H31.42c-.31.31-.63.91-.95,1.22-1.58,1.26-3.79,3.15-6.95,3.15a12.78,12.78,0,0,1-7-2.21h-.94c-.32,0-.32.31-.64.63C9.3,30,16.57,47.64,31.74,55.2h.95C47.54,47.64,54.82,30,49.12,14.88Z"/>
    <path class="cls-3" d="M32.69,55.2h-.63V12.09h.63c.31.31.64.91.95,1.22,1.58,1.26,3.79,3.15,7.27,3.15a11.85,11.85,0,0,0,6.64-2.21h.95a.68.68,0,0,1,.63.63C54.82,30,47.54,47.64,32.69,55.2Z"/>
    <path class="cls-4" d="M32.06,55.2h-.32C16.57,47.64,9.3,30,15,14.88c.32-.32.32-.63.63-.63h.95a12.8,12.8,0,0,0,7,2.21c3.16,0,5.37-1.89,7-3.15.32-.32.63-.9.95-1.22h1.26c.32.32.63.9.95,1.22,1.58,1.26,3.79,3.15,7.27,3.15a11.87,11.87,0,0,0,6.64-2.21h.95a.68.68,0,0,1,.63.63C54.81,30,47.54,47.64,32.69,55.2Z"/>
  </g>
</svg>
