<svg id="Titles" xmlns="http://www.w3.org/2000/svg" viewBox="0 0 64 64">
  <defs>
    <style>
      .cls-1 {
        fill: #556a8a;
      }
    </style>
  </defs>
  <title>i_formula</title>
  <g>
    <path class="cls-1" d="M32.67,19.9l-.55,2H27.63L24.24,35.37a80.17,80.17,0,0,1-4.52,13.75q-3.23,6.86-7,9.47a9.77,9.77,0,0,1-5.66,2A4.66,4.66,0,0,1,4,59.49a2.45,2.45,0,0,1-1-2,2.25,2.25,0,0,1,.79-1.71,2.73,2.73,0,0,1,1.92-.72,2,2,0,0,1,1.4.52,1.59,1.59,0,0,1,.57,1.2A1.69,1.69,0,0,1,7,58q-.49.43-.49.65a.5.5,0,0,0,.22.43,1.4,1.4,0,0,0,.86.22,5.65,5.65,0,0,0,2.78-.83A8,8,0,0,0,13,56a18.84,18.84,0,0,0,2.15-4.75q.43-1.29,2.31-8.52l5.35-20.83H17.48l.43-2a12.26,12.26,0,0,0,3.57-.35,4.31,4.31,0,0,0,1.86-1.35,20.32,20.32,0,0,0,2.2-3.74A30.36,30.36,0,0,1,29,8.73a16.79,16.79,0,0,1,4.78-4.11,9.92,9.92,0,0,1,4.72-1.37,5.66,5.66,0,0,1,3.75,1.18A3.36,3.36,0,0,1,43.69,7,2.52,2.52,0,0,1,43,8.82a2.4,2.4,0,0,1-1.82.74A2.2,2.2,0,0,1,39.61,9,1.74,1.74,0,0,1,39,7.69a2.65,2.65,0,0,1,.4-1.21,2.71,2.71,0,0,0,.4-1,.77.77,0,0,0-.28-.65,1.89,1.89,0,0,0-1.17-.31,5.42,5.42,0,0,0-3.48,1.23,13.93,13.93,0,0,0-3.69,5.11q-.83,1.81-3,9Z"/>
    <path class="cls-1" d="M42.42,19.16a12.92,12.92,0,0,1,2.28,3.2,42.63,42.63,0,0,1,1.81,5.81l2.71-4.06a17.05,17.05,0,0,1,2.62-2.81,10.67,10.67,0,0,1,2.71-1.83,4.2,4.2,0,0,1,1.63-.31,3,3,0,0,1,2.11.71,2.24,2.24,0,0,1,.78,1.72,2.16,2.16,0,0,1-.46,1.6,2.87,2.87,0,0,1-2,.77,4,4,0,0,1-1.38-.28,7.73,7.73,0,0,0-1.94-.49,2.94,2.94,0,0,0-1.75.86A24.41,24.41,0,0,0,47,30.23l2.52,10.58a9.47,9.47,0,0,0,1,2.91,1.09,1.09,0,0,0,.8.48,2.55,2.55,0,0,0,1.51-.71,12.06,12.06,0,0,0,2.89-3.69l1.08.55a19.26,19.26,0,0,1-4.92,6A5,5,0,0,1,49,47.74a3.06,3.06,0,0,1-2.74-1.94q-.65-1.2-2.68-10.34Q38.79,43.8,35.9,46.2a5.81,5.81,0,0,1-3.63,1.54A3.33,3.33,0,0,1,30,46.85,2.34,2.34,0,0,1,29.29,45,2.29,2.29,0,0,1,30,43.34a2.26,2.26,0,0,1,1.66-.68,3.26,3.26,0,0,1,2.09,1,2.27,2.27,0,0,0,1.23.71,1.68,1.68,0,0,0,1-.49,23.29,23.29,0,0,0,3.94-5,49.65,49.65,0,0,0,3.26-5.6Q41.19,25.74,41,25.31a5.78,5.78,0,0,0-1.85-2.83,5.66,5.66,0,0,0-3.35-.83q-.71,0-1.63.06V20.61Z"/>
  </g>
</svg>
