<svg id="ICONS-64x" xmlns="http://www.w3.org/2000/svg" viewBox="0 0 64 64">
  <defs>
    <style>
      .cls-1 {
        fill: #fff;
      }

      .cls-2 {
        fill: #e5e5e5;
      }

      .cls-3 {
        fill: #556a8a;
      }

      .cls-4 {
        fill: none;
        stroke: #556a8a;
        stroke-miterlimit: 10;
        stroke-width: 2px;
      }
    </style>
  </defs>
  <title>i_free-trial</title>
  <path class="cls-1" d="M63,19.45,46,18,44.55,1,30.5,12,18.45,1,17,18,0,19.45,11,32.5,0,45.55,17,47l1.42,17L31.5,53,44.55,64,46,47l17-1.42L52,32.5Z"/>
  <polygon class="cls-2" points="51.31 32.5 61.99 45.13 45.51 46.51 44.13 62.99 30 52 30 13 44.13 1.96 45.51 18.49 61.99 19.87 51.31 32.5"/>
  <path class="cls-3" d="M42.86,4.86,44,18.2l.14,1.69L45.8,20,59,21.12,50.43,31.21,49.34,32.5l1.09,1.29L59,43.88,45.8,45l-1.69.14L44,46.8,42.88,60,32.79,51.43,31.5,50.34l-1.29,1.09L20.12,60,19,46.8l-.14-1.69L17.2,45,4,43.88l8.53-10.09,1.09-1.29-1.09-1.29L4,21.12,17.2,20l1.69-.14L19,18.2l1.08-13,9,8.26,1.25,1.14,1.33-1L42.86,4.86M44.55,1,30.5,12,18.45,1,17,18,0,19.45,11,32.5,0,45.55,17,47l1.42,17L31.5,53,44.55,64,46,47l17-1.42L52,32.5,63,19.45,46,18,44.55,1Z"/>
  <path class="cls-3" d="M20.2,28.91l10,10V18h1.62V38.9l10-10,1.14,1.14L31,42,19.05,30.05Z"/>
  <line class="cls-4" x1="22" y1="46" x2="40" y2="46"/>
</svg>
