<svg xmlns="http://www.w3.org/2000/svg" viewBox="0 0 64 64"><defs><style>.cls-1{fill:#fff;stroke:#556a8a}.cls-1,.cls-5{stroke-miterlimit:10;stroke-width:2px}.cls-4{fill:#868787}.cls-5{fill:none;stroke:#868787}</style></defs><g id="ICONS-64x"><path class="cls-1" d="M1 7v54h62V7z"/><path class="cls-1" d="M38.5 3A7.9 7.9 0 0032 6a7.9 7.9 0 00-6.5-3H8v51h17.5a6.88 6.88 0 015 2.43C31.15 57.16 32 58 32 58s.85-.84 1.5-1.57a6.88 6.88 0 015-2.43H56V3z"/><path d="M9 4h8v49H9zm38 0h8v49h-8z" fill="#e5e5e5"/><path d="M33 6.34V55.5l-.25.27-.75.8c-.24-.25-.51-.53-.75-.8L31 55.5V6.33z" fill="#2bc7f4"/></g><g id="Layer_5" data-name="Layer 5"><circle class="cls-4" cx="14" cy="31" r="2"/><path class="cls-5" d="M19 31h9"/><circle class="cls-4" cx="14" cy="41" r="2"/><path class="cls-5" d="M19 41h9"/><circle class="cls-4" cx="38" cy="31" r="2"/><path class="cls-5" d="M43 31h9"/><circle class="cls-4" cx="38" cy="41" r="2"/><path class="cls-5" d="M43 41h9"/><path d="M15 22l11-11m0 11L15 11m37-1.5L40.5 21l-4.75-4.75" stroke="#2bc7f4" fill="none" stroke-miterlimit="10" stroke-width="2"/></g></svg>