<svg id="ICONS-64x" xmlns="http://www.w3.org/2000/svg" viewBox="0 0 64 64">
  <defs>
    <style>
      .cls-1, .cls-4 {
        fill: #fff;
      }

      .cls-1, .cls-5 {
        stroke: #556a8a;
        stroke-miterlimit: 10;
        stroke-width: 2px;
      }

      .cls-2 {
        fill: #556a8a;
      }

      .cls-3 {
        fill: #e5e5e5;
      }

      .cls-5 {
        fill: none;
      }

      .cls-6 {
        fill: #2bc7f4;
      }
    </style>
  </defs>
  <title>i_virtual-training</title>
  <path class="cls-1" d="M63,37.41A11.6,11.6,0,0,0,48.19,26.27a10.6,10.6,0,0,0,.28-2.38C48.47,18,44.89,21,39,21c-2.09,0-6-4-6.86-6.1A11.61,11.61,0,0,0,22.83,10c-6,0-11.07,5-12,11.52C5.16,22.83,1,28.49,1,35.09S5.84,51.9,18.44,50.94c0,0,31.87,0,32,0S63,50.94,63,37.41Z"/>
  <rect class="cls-2" x="21" y="22" width="2" height="15" rx="0.5" ry="0.5"/>
  <path class="cls-3" d="M61.65,21.18,41,13,19.37,21.18,26,24.1V35.57c0,4.06,7.1,7.48,15,7.48s14-3.43,14-7.65V23.93Z"/>
  <path class="cls-4" d="M41.3,30.12,26,24.1V35.57c0,4.06,7.1,7.48,15,7.48s14-3.43,14-7.65V23.93Z"/>
  <path class="cls-5" d="M61.65,21.18,41,13,19.37,21.18,26,24.1V35.57c0,4.06,7.1,7.48,15,7.48s14-3.43,14-7.65V23.93Z"/>
  <path class="cls-2" d="M20,40V37.08c0-1.6.72-3.08,1.6-3.08h.8c.88,0,1.6,1.48,1.6,3.08V40Z"/>
  <polygon class="cls-6" points="54 25 41 30.15 27 25 27 28.41 41 33.95 54 28.41 54 25"/>
  <polyline class="cls-5" points="25.06 23.73 41 30 55.08 23.93"/>
</svg>
