<svg id="ICONS-64x" xmlns="http://www.w3.org/2000/svg" viewBox="0 0 64 64">
  <defs>
    <style>
      .cls-1 {
        fill: #fff;
        stroke: #556a8a;
      }

      .cls-1, .cls-3 {
        stroke-miterlimit: 10;
        stroke-width: 2px;
      }

      .cls-2 {
        fill: #2bc7f4;
      }

      .cls-3 {
        fill: none;
        stroke: #fff;
        fill-rule: evenodd;
      }
    </style>
  </defs>
  <title>i_setup</title>
  <path class="cls-1" d="M3.62,34.12l4.47.67a17.31,17.31,0,0,0,.46,3L4.86,40.21A1.17,1.17,0,0,0,4.2,41.8l1.11,2.73A1,1,0,0,0,6.74,45l4.49-.94,1.42,2.42L10.07,50a1.19,1.19,0,0,0,0,1.6l2.22,2.26a1.44,1.44,0,0,0,1.6,0l3.53-2.53c.8.48,1.76,1.12,2.55,1.61l-1,4.47a1.1,1.1,0,0,0,.62,1.29l2.72,1.13a1,1,0,0,0,1.45-.46l2.43-4a9.35,9.35,0,0,0,2.87.67l.61,4.48a1.1,1.1,0,0,0,1.11,1.13l3-.15c.48.16,1-.32,1.12-.79l.84-4.64a9.64,9.64,0,0,0,2.88-.61l2.38,4a1.59,1.59,0,0,0,1.43.49l2.89-1.26A1.09,1.09,0,0,0,46,57.42l-1.1-4.34a5.66,5.66,0,0,0,.62-.42c.13-.09.27-.19.4-.3.47-.35.94-.74,1.4-1L51,54.08a1,1,0,0,0,1.44-.15l1.34-1.32.75-.75,0,0a1,1,0,0,0,.14-1.41L52,46.73A13.13,13.13,0,0,0,53.79,44l4.46,1.3a1.42,1.42,0,0,0,1.46-.78l1.13-2.72a1.39,1.39,0,0,0-.62-1.6l-3.83-2.27c.33-1,.33-1.92.66-2.87l4.48-.61a1.42,1.42,0,0,0,1-1.28V30.32A1.36,1.36,0,0,0,61.58,29l-4.65-.51a18.27,18.27,0,0,0-.61-3.21l4-2.37a1,1,0,0,0,.5-1.44l-1.11-2.72A1.49,1.49,0,0,0,58.29,18l-4.5,1.25c-.47-.8-.94-1.61-1.42-2.41l2.75-3.66A1.48,1.48,0,0,0,55,11.71L52.74,9.45a1.2,1.2,0,0,0-1.43-.17L47.61,12c-.8-.5-1.75-1.14-2.55-1.62l1-4.48a1.07,1.07,0,0,0-.62-1.28l-2.87-1.3a1.38,1.38,0,0,0-1.45.47L38.84,7.62c-1,0-1.92-.33-2.88-.35l-.44-4.64a1.4,1.4,0,0,0-1.28-1l-3-.18a1.87,1.87,0,0,0-1.12,1.1L29.4,7.08c-1.12.15-2.08.47-3.2.61L24,3.84a1.11,1.11,0,0,0-1.44-.49L19.83,4.46A1.3,1.3,0,0,0,19,5.89l1.1,4.33A10.34,10.34,0,0,0,17.7,12L14,9.22a1.07,1.07,0,0,0-1.61,0l-1.92,1.9-.17.16a1.09,1.09,0,0,0,0,1.6L13,16.58a7.16,7.16,0,0,0-1.37,1.85l-.12.22c-.1.2-.2.41-.29.63L6.77,18a1.09,1.09,0,0,0-1.28.62l-1.3,2.88a1.63,1.63,0,0,0,.47,1.45l4,2.42a7.93,7.93,0,0,0-.51,2.72l-4.65.76c-.47.17-1,.64-1,1l0,3.2A1.08,1.08,0,0,0,3.62,34.12Z"/>
  <path class="cls-2" d="M18.67,25.79a15,15,0,1,1-1.16,5.85A14.82,14.82,0,0,1,18.67,25.79Z"/>
  <polyline class="cls-3" points="21.75 31.75 29.5 39.5 43.75 25.25"/>
</svg>
