<svg width="150" height="150" viewBox="0 0 150 150" fill="none" xmlns="http://www.w3.org/2000/svg">
<path d="M0 31C0 25.4772 4.47715 21 10 21H133C138.523 21 143 25.4772 143 31V35H0V31Z" fill="white"/>
<rect y="35" width="143" height="37" fill="#E5E5E5"/>
<path d="M0 72H143V102C143 106.418 139.418 110 135 110H8C3.58173 110 0 106.418 0 102V72Z" fill="white"/>
<rect x="2.25" y="20.25" width="138.5" height="91.5" rx="9.75" stroke="#556A8A" stroke-width="4.5"/>
<rect x="14" y="27" width="27" height="3" rx="1.5" fill="#2BC7F4"/>
<rect x="83" y="27" width="12" height="3" rx="1.5" fill="#E5E5E5"/>
<rect x="99" y="27" width="12" height="3" rx="1.5" fill="#E5E5E5"/>
<rect x="115" y="27" width="12" height="3" rx="1.5" fill="#E5E5E5"/>
<path d="M69.1719 112C69.1719 110.757 70.1792 109.75 71.4219 109.75C72.6645 109.75 73.6719 110.757 73.6719 112H69.1719ZM71.4219 129V131.25H69.1719V129H71.4219ZM41 131.25C39.7574 131.25 38.75 130.243 38.75 129C38.75 127.757 39.7574 126.75 41 126.75V131.25ZM73.6719 112V129H69.1719V112H73.6719ZM71.4219 126.75H100V131.25H71.4219V126.75ZM100 131.25H41V126.75H100V131.25Z" fill="#556A8A"/>
<rect x="88.25" y="45.25" width="59.5" height="102.5" rx="5.75" fill="white" stroke="#556A8A" stroke-width="4.5"/>
<rect x="90" y="56" width="56" height="79" fill="#E5E5E5"/>
<ellipse cx="118" cy="93" rx="16" ry="17" fill="white"/>
<rect x="109" y="50" width="18" height="3" rx="1.5" fill="#2BC7F4"/>
<path d="M118 76C119.652 76 121.246 76.2168 122.781 76.6504C124.316 77.0723 125.752 77.6758 127.088 78.4609C128.424 79.2344 129.637 80.1719 130.727 81.2734C131.828 82.3633 132.766 83.5762 133.539 84.9121C134.324 86.248 134.928 87.6836 135.35 89.2188C135.783 90.7539 136 92.3477 136 94C136 95.6523 135.783 97.2461 135.35 98.7812C134.928 100.316 134.324 101.752 133.539 103.088C132.766 104.424 131.828 105.643 130.727 106.744C129.637 107.834 128.424 108.771 127.088 109.557C125.752 110.33 124.316 110.934 122.781 111.367C121.246 111.789 119.652 112 118 112C116.348 112 114.754 111.789 113.219 111.367C111.684 110.934 110.248 110.33 108.912 109.557C107.576 108.771 106.357 107.834 105.256 106.744C104.166 105.643 103.229 104.424 102.443 103.088C101.67 101.752 101.066 100.322 100.633 98.7988C100.211 97.2637 100 95.6641 100 94C100 92.3477 100.211 90.7539 100.633 89.2188C101.066 87.6836 101.67 86.248 102.443 84.9121C103.229 83.5762 104.166 82.3633 105.256 81.2734C106.357 80.1719 107.576 79.2344 108.912 78.4609C110.248 77.6758 111.678 77.0723 113.201 76.6504C114.736 76.2168 116.336 76 118 76ZM132.221 87.25C131.775 86.3008 131.236 85.4102 130.604 84.5781C129.971 83.7344 129.268 82.9668 128.494 82.2754C127.721 81.584 126.883 80.9688 125.98 80.4297C125.078 79.8906 124.135 79.4512 123.15 79.1113C123.572 79.6973 123.953 80.3184 124.293 80.9746C124.633 81.6309 124.932 82.3105 125.189 83.0137C125.459 83.7051 125.688 84.4082 125.875 85.123C126.062 85.8379 126.227 86.5469 126.367 87.25H132.221ZM133.75 94C133.75 92.4414 133.533 90.9414 133.1 89.5H126.719C126.812 90.25 126.883 91 126.93 91.75C126.977 92.4883 127 93.2383 127 94C127 94.7617 126.977 95.5176 126.93 96.2676C126.883 97.0059 126.812 97.75 126.719 98.5H133.1C133.533 97.0586 133.75 95.5586 133.75 94ZM118 109.75C118.574 109.75 119.107 109.592 119.6 109.275C120.104 108.959 120.566 108.543 120.988 108.027C121.41 107.512 121.785 106.932 122.113 106.287C122.453 105.631 122.752 104.969 123.01 104.301C123.268 103.633 123.484 102.988 123.66 102.367C123.836 101.746 123.971 101.207 124.064 100.75H111.936C112.029 101.207 112.164 101.746 112.34 102.367C112.516 102.988 112.732 103.633 112.99 104.301C113.248 104.969 113.541 105.631 113.869 106.287C114.209 106.932 114.59 107.512 115.012 108.027C115.434 108.543 115.891 108.959 116.383 109.275C116.887 109.592 117.426 109.75 118 109.75ZM124.451 98.5C124.545 97.75 124.615 97.0059 124.662 96.2676C124.721 95.5176 124.75 94.7617 124.75 94C124.75 93.2383 124.721 92.4883 124.662 91.75C124.615 91 124.545 90.25 124.451 89.5H111.549C111.455 90.25 111.379 91 111.32 91.75C111.273 92.4883 111.25 93.2383 111.25 94C111.25 94.7617 111.273 95.5176 111.32 96.2676C111.379 97.0059 111.455 97.75 111.549 98.5H124.451ZM102.25 94C102.25 95.5586 102.467 97.0586 102.9 98.5H109.281C109.188 97.75 109.117 97.0059 109.07 96.2676C109.023 95.5176 109 94.7617 109 94C109 93.2383 109.023 92.4883 109.07 91.75C109.117 91 109.188 90.25 109.281 89.5H102.9C102.467 90.9414 102.25 92.4414 102.25 94ZM118 78.25C117.426 78.25 116.887 78.4082 116.383 78.7246C115.891 79.041 115.434 79.457 115.012 79.9727C114.59 80.4883 114.209 81.0742 113.869 81.7305C113.541 82.375 113.248 83.0312 112.99 83.6992C112.732 84.3672 112.516 85.0117 112.34 85.6328C112.164 86.2539 112.029 86.793 111.936 87.25H124.064C123.971 86.793 123.836 86.2539 123.66 85.6328C123.484 85.0117 123.268 84.3672 123.01 83.6992C122.752 83.0312 122.453 82.375 122.113 81.7305C121.785 81.0742 121.41 80.4883 120.988 79.9727C120.566 79.457 120.104 79.041 119.6 78.7246C119.107 78.4082 118.574 78.25 118 78.25ZM112.85 79.1113C111.865 79.4512 110.922 79.8906 110.02 80.4297C109.117 80.9688 108.279 81.584 107.506 82.2754C106.732 82.9668 106.029 83.7344 105.396 84.5781C104.764 85.4102 104.225 86.3008 103.779 87.25H109.633C109.773 86.5469 109.938 85.8379 110.125 85.123C110.312 84.4082 110.535 83.7051 110.793 83.0137C111.062 82.3105 111.367 81.6309 111.707 80.9746C112.047 80.3184 112.428 79.6973 112.85 79.1113ZM103.779 100.75C104.225 101.699 104.764 102.596 105.396 103.439C106.029 104.271 106.732 105.033 107.506 105.725C108.279 106.416 109.117 107.031 110.02 107.57C110.922 108.109 111.865 108.549 112.85 108.889C112.428 108.303 112.047 107.682 111.707 107.025C111.367 106.369 111.062 105.695 110.793 105.004C110.535 104.301 110.312 103.592 110.125 102.877C109.938 102.162 109.773 101.453 109.633 100.75H103.779ZM123.15 108.889C124.135 108.549 125.078 108.109 125.98 107.57C126.883 107.031 127.721 106.416 128.494 105.725C129.268 105.033 129.971 104.271 130.604 103.439C131.236 102.596 131.775 101.699 132.221 100.75H126.367C126.227 101.453 126.062 102.162 125.875 102.877C125.688 103.592 125.459 104.301 125.189 105.004C124.932 105.695 124.633 106.369 124.293 107.025C123.953 107.682 123.572 108.303 123.15 108.889Z" fill="#556A8A" stroke="#556A8A" stroke-width="0.5"/>
<circle cx="118.5" cy="140.5" r="3.5" fill="#2BC7F4"/>
</svg>
