<svg id="Titles" xmlns="http://www.w3.org/2000/svg" viewBox="0 0 64 64">
  <defs>
    <style>
      .cls-1 {
        fill: #556a8a;
      }
    </style>
  </defs>
  <title>i_variable</title>
  <path class="cls-1" d="M29.88,20.81a11.65,11.65,0,0,1,2.06,2.89A38.48,38.48,0,0,1,33.58,29L36,25.29a15.5,15.5,0,0,1,2.37-2.55,9.74,9.74,0,0,1,2.45-1.66,3.82,3.82,0,0,1,1.48-.28,2.74,2.74,0,0,1,1.91.64A2,2,0,0,1,44.94,23a2,2,0,0,1-.42,1.45,2.6,2.6,0,0,1-1.78.7,3.58,3.58,0,0,1-1.25-.25,7,7,0,0,0-1.75-.45,2.66,2.66,0,0,0-1.59.78A22.07,22.07,0,0,0,34,30.83l2.28,9.57A8.59,8.59,0,0,0,37.2,43a1,1,0,0,0,.72.43,2.3,2.3,0,0,0,1.36-.64,10.93,10.93,0,0,0,2.62-3.34l1,.5a17.43,17.43,0,0,1-4.45,5.46,4.53,4.53,0,0,1-2.59,1.22,2.77,2.77,0,0,1-2.48-1.75q-.58-1.08-2.42-9.35-4.34,7.54-7,9.71a5.26,5.26,0,0,1-3.29,1.39,3,3,0,0,1-2-.81A2.12,2.12,0,0,1,18,44.22a2.08,2.08,0,0,1,.61-1.53,2,2,0,0,1,1.5-.61A2.94,2.94,0,0,1,22,43a2.06,2.06,0,0,0,1.11.64,1.53,1.53,0,0,0,.86-.45,21.16,21.16,0,0,0,3.56-4.56,45,45,0,0,0,2.95-5.07q-1.73-6.76-1.86-7.15A5.22,5.22,0,0,0,27,23.82a5.11,5.11,0,0,0-3-.75q-.64,0-1.47.06v-1Z"/>
  <g>
    <path class="cls-1" d="M16.7,57.16v1a26.58,26.58,0,0,1-7-5,27.94,27.94,0,0,1-6.18-9.52A30.65,30.65,0,0,1,1.34,32.33,30.07,30.07,0,0,1,5.6,16.6,24.53,24.53,0,0,1,16.7,6.42V7.59a16,16,0,0,0-5.62,5.18,23.94,23.94,0,0,0-3.28,8.32A49.84,49.84,0,0,0,6.71,31.61a58.62,58.62,0,0,0,.92,10.83A28.72,28.72,0,0,0,9.38,48.6a19.88,19.88,0,0,0,2.77,4.47A21.77,21.77,0,0,0,16.7,57.16Z"/>
    <path class="cls-1" d="M47.76,7.59V6.42a26,26,0,0,1,7,4.93A28.49,28.49,0,0,1,61,20.88a30.61,30.61,0,0,1,2.17,11.4A30.13,30.13,0,0,1,58.88,48,24.42,24.42,0,0,1,47.76,58.19v-1A16.4,16.4,0,0,0,53.4,52a23.42,23.42,0,0,0,3.28-8.32,50.68,50.68,0,0,0,1.07-10.54,58.92,58.92,0,0,0-.92-10.83,27,27,0,0,0-1.74-6.15,20.7,20.7,0,0,0-2.77-4.45A21.2,21.2,0,0,0,47.76,7.59Z"/>
  </g>
</svg>
