<?xml version="1.0" encoding="utf-8"?>
<!-- Generator: Adobe Illustrator 22.1.0, SVG Export Plug-In . SVG Version: 6.00 Build 0)  -->
<svg version="1.1" id="Layer_1" xmlns="http://www.w3.org/2000/svg" xmlns:xlink="http://www.w3.org/1999/xlink" x="0px" y="0px"
	 viewBox="0 0 16 16" enable-background="new 0 0 16 16" xml:space="preserve">
<path fill="#873C86" d="M9.258,9.211C8.8,8.82,8.292,8.521,7.734,8.312C7.177,8.104,6.599,8,6,8C5.542,8,5.099,8.06,4.672,8.18
	C4.245,8.3,3.847,8.468,3.477,8.684C3.106,8.9,2.77,9.16,2.465,9.465s-0.565,0.643-0.781,1.012c-0.216,0.37-0.384,0.769-0.504,1.195
	C1.06,12.1,1,12.542,1,13H0c0-0.625,0.093-1.227,0.277-1.805s0.446-1.111,0.785-1.602c0.339-0.489,0.746-0.924,1.223-1.305
	c0.477-0.38,1.007-0.68,1.59-0.898c-0.589-0.385-1.048-0.87-1.379-1.453C2.165,5.354,2,4.708,2,4c0-0.552,0.104-1.071,0.312-1.559
	C2.521,1.955,2.806,1.53,3.168,1.168C3.53,0.806,3.954,0.521,4.441,0.312C4.929,0.104,5.448,0,6,0s1.071,0.104,1.559,0.312
	C8.046,0.521,8.47,0.806,8.832,1.168C9.194,1.53,9.479,1.955,9.688,2.441C9.896,2.929,10,3.448,10,4c0,0.344-0.043,0.68-0.129,1.008
	S9.661,5.646,9.5,5.938C9.339,6.229,9.142,6.499,8.91,6.746C8.679,6.994,8.417,7.208,8.125,7.391
	c0.339,0.13,0.661,0.289,0.969,0.477S9.69,8.266,9.961,8.5L9.258,9.211z M3,4c0,0.417,0.078,0.806,0.234,1.168
	c0.156,0.362,0.371,0.68,0.645,0.953S4.47,6.609,4.832,6.766S5.583,7,6,7c0.411,0,0.8-0.078,1.164-0.234s0.684-0.371,0.957-0.645
	S8.609,5.53,8.766,5.168C8.922,4.806,9,4.417,9,4c0-0.411-0.078-0.799-0.234-1.164C8.609,2.472,8.395,2.152,8.121,1.879
	S7.528,1.391,7.164,1.234S6.411,1,6,1C5.583,1,5.194,1.078,4.832,1.234s-0.68,0.371-0.953,0.645S3.391,2.472,3.234,2.836
	C3.078,3.201,3,3.589,3,4z M13.5,6c0.344,0,0.667,0.066,0.969,0.199s0.566,0.312,0.793,0.539s0.406,0.491,0.539,0.793
	C15.934,7.833,16,8.156,16,8.5s-0.066,0.668-0.199,0.973s-0.312,0.57-0.539,0.797s-0.491,0.405-0.793,0.535
	C14.167,10.936,13.844,11,13.5,11c-0.12,0-0.237-0.008-0.352-0.023l-4.586,4.586c-0.141,0.141-0.304,0.249-0.488,0.324
	C7.89,15.963,7.698,16,7.5,16c-0.208,0-0.403-0.039-0.586-0.117s-0.341-0.185-0.477-0.32c-0.136-0.135-0.242-0.294-0.32-0.477
	C6.039,14.904,6,14.709,6,14.5c0-0.197,0.038-0.389,0.113-0.574c0.075-0.185,0.184-0.348,0.324-0.488l4.586-4.586
	C11.008,8.737,11,8.62,11,8.5c0-0.344,0.065-0.667,0.195-0.969c0.13-0.302,0.309-0.566,0.535-0.793s0.492-0.406,0.797-0.539
	S13.156,6,13.5,6z M13.5,10c0.208,0,0.403-0.039,0.586-0.117s0.341-0.185,0.477-0.32c0.136-0.135,0.242-0.294,0.32-0.477
	C14.961,8.904,15,8.708,15,8.5c0-0.213-0.05-0.427-0.148-0.641L13.711,9H13V8.289l1.141-1.141C13.927,7.05,13.714,7,13.5,7
	c-0.208,0-0.403,0.039-0.586,0.117s-0.341,0.185-0.477,0.32c-0.136,0.136-0.242,0.294-0.32,0.477C12.039,8.097,12,8.292,12,8.5
	c0,0.214,0.05,0.427,0.148,0.641l-5,5.008C7.05,14.248,7,14.365,7,14.5c0,0.136,0.05,0.253,0.148,0.352
	C7.247,14.951,7.364,15,7.5,15s0.253-0.049,0.352-0.148l5.008-5C13.073,9.951,13.286,10,13.5,10z"/>
</svg>
