<svg xmlns="http://www.w3.org/2000/svg" viewBox="0 0 400 140"><defs><style>.cls-1{fill:#556a8a;}.cls-2,.cls-3{fill:#fff;}.cls-2{stroke:#00bcf2;}.cls-2,.cls-5{stroke-miterlimit:10;stroke-width:2px;}.cls-4{fill:#e5e5e5;}.cls-11,.cls-5{fill:none;}.cls-5{stroke:#556a8a;}.cls-10,.cls-6{fill:#80def9;}.cls-7{fill:#83d9e0;}.cls-8{fill:#d1d3d4;}.cls-9{fill:#3a96dd;}.cls-10{opacity:0.7;}</style></defs><title>dynamics-training</title><g id="ICONS"><polygon class="cls-1" points="210.79 117.75 205.05 117.75 206 104.33 209.84 104.33 210.79 117.75"/><path class="cls-2" d="M165.4,67.47V67a20,20,0,0,0-.65-5,18,18,0,0,0-29.54-12.77C130.84,43.73,125.27,41,117.8,41c-13.15,0-23.08,11.48-23.3,24.41,0,.89.22,1.56.22,2.45C87.82,71.21,83.8,77,83.8,84.36c0,10.52,8.27,18.94,19.23,19.56,1,7.3,7.55,14.08,18.77,14.08,9.46,0,15.1.76,22-7a23.25,23.25,0,0,0,11,3c13.25,0,24-11.75,24-25A24,24,0,0,0,165.4,67.47Z"/><path class="cls-3" d="M260.17,25H156a7.42,7.42,0,0,0-7.44,7.35v64.3A7.42,7.42,0,0,0,156,104H260.17a7.42,7.42,0,0,0,7.44-7.35V32.35A7.42,7.42,0,0,0,260.17,25Z"/><path class="cls-4" d="M267.61,32.35V44h-119V32.35A7.42,7.42,0,0,1,156,25H260.17A7.42,7.42,0,0,1,267.61,32.35Z"/><path class="cls-5" d="M260.17,25H156a7.42,7.42,0,0,0-7.44,7.35v64.3A7.42,7.42,0,0,0,156,104H260.17a7.42,7.42,0,0,0,7.44-7.35V32.35A7.42,7.42,0,0,0,260.17,25Z"/><polygon class="cls-1" points="232.54 116 182.98 116 177.26 120 238.26 120 232.54 116"/><polygon class="cls-6" points="325.2 61.69 297.25 61.69 297.25 35.07 325.2 61.69"/><path class="cls-3" d="M297.32,36h-33A1.27,1.27,0,0,0,263,37.28v79.43a1.27,1.27,0,0,0,1.27,1.28h58.45a1.27,1.27,0,0,0,1.27-1.28V61.62Z"/><path class="cls-5" d="M297.32,36h-33A1.27,1.27,0,0,0,263,37.28v79.43a1.27,1.27,0,0,0,1.27,1.28h58.45a1.27,1.27,0,0,0,1.27-1.28V61.62Z"/><rect class="cls-7" x="264" y="37.14" width="21" height="79.86"/><path class="cls-1" d="M276.8,65.57V77H275V67.78a5.87,5.87,0,0,1-1.06.6,8.87,8.87,0,0,1-1.29.43V67.27l.87-.31q.42-.16.83-.37t.83-.45q.42-.25.86-.57Z"/><path class="cls-1" d="M279.07,93h-7v-.87a3.25,3.25,0,0,1,.15-1,4,4,0,0,1,.4-.87,4.83,4.83,0,0,1,.58-.77,9.76,9.76,0,0,1,.72-.7q.38-.34.78-.66l.78-.64q.36-.3.65-.6a3.87,3.87,0,0,0,.51-.6,2.73,2.73,0,0,0,.33-.66,2.33,2.33,0,0,0,.12-.75,2,2,0,0,0-.14-.78,1.52,1.52,0,0,0-.38-.55,1.63,1.63,0,0,0-.58-.33,2.29,2.29,0,0,0-.73-.11,3.39,3.39,0,0,0-1.4.32,4.79,4.79,0,0,0-1.36,1V82.62a5.57,5.57,0,0,1,.69-.45,4.69,4.69,0,0,1,.72-.32,4.42,4.42,0,0,1,.79-.19,5.85,5.85,0,0,1,.88-.06,4.48,4.48,0,0,1,1.37.2,2.94,2.94,0,0,1,1.05.58,2.59,2.59,0,0,1,.67,1,3.46,3.46,0,0,1,.24,1.33,4.14,4.14,0,0,1-.17,1.22,3.94,3.94,0,0,1-.48,1,5.23,5.23,0,0,1-.74.89q-.44.42-1,.87l-.9.71q-.45.35-.81.68a3.79,3.79,0,0,0-.58.66,1.19,1.19,0,0,0-.22.67v0h5Z"/><path class="cls-1" d="M272.25,108.53v-1.7a3.87,3.87,0,0,0,2.46.87,2.87,2.87,0,0,0,1.78-.51,1.63,1.63,0,0,0,.67-1.37q0-1.9-2.91-1.9h-.87v-1.45h.83q2.58,0,2.58-1.79t-2-1.65a3.29,3.29,0,0,0-2.11.8V98.21a5.4,5.4,0,0,1,2.69-.64,3.6,3.6,0,0,1,2.39.75,2.39,2.39,0,0,1,.9,1.92,2.73,2.73,0,0,1-2.25,2.84v0a2.94,2.94,0,0,1,1.91.85,2.52,2.52,0,0,1,.7,1.82,3,3,0,0,1-1.13,2.43,4.56,4.56,0,0,1-3,.92A5.09,5.09,0,0,1,272.25,108.53Z"/><polyline class="cls-5" points="297 35.38 297 62 324.95 62"/><line class="cls-5" x1="288" y1="71" x2="315" y2="71"/><line class="cls-5" x1="288" y1="87" x2="315" y2="87"/><line class="cls-5" x1="288" y1="103" x2="315" y2="103"/><rect class="cls-1" x="181" y="53.88" width="2" height="30" rx="0.5" ry="0.5"/><polygon class="cls-8" points="176.61 55 211.41 41.88 245.01 55 211.41 69.4 176.61 55"/><polygon class="cls-9" points="237 60 211.41 69.92 187.41 59.98 187.41 65.98 211.41 75.98 236.66 66.39 237 60"/><path class="cls-5" d="M247.7,55,213.2,41.88,178.7,55l9.3,4.8V78.68C188,85.36,200.3,91,213.2,91S237,85.36,237,78.68V59.8Z"/><path class="cls-1" d="M180,84v-4.8c0-2.64.72-4.8,1.6-4.8h.8c.88,0,1.6,2.16,1.6,4.8V84Z"/><polyline class="cls-5" points="186 59 211.41 69.4 241 58"/><circle class="cls-3" cx="105.8" cy="51" r="32"/><path class="cls-3" d="M136.3,50.75a2.09,2.09,0,0,1,0,.25,30.24,30.24,0,0,1-60.48,0,2.09,2.09,0,0,1,0-.25,30.25,30.25,0,0,1,60.5,0Z"/><path class="cls-10" d="M106.05,81.5A30.82,30.82,0,0,1,75.31,51v-.5H136.8V51A30.82,30.82,0,0,1,106.05,81.5Z"/><path class="cls-1" d="M105.8,21a30,30,0,1,1-30,30,30,30,0,0,1,30-30m0-2a32,32,0,1,0,32,32,32,32,0,0,0-32-32Z"/><path class="cls-1" d="M105.8,21c5.71,0,12.08,12.32,12.08,30s-6.37,30-12.08,30S93.72,68.68,93.72,51s6.37-30,12.08-30m0-2C98,19,91.72,33.33,91.72,51S98,83,105.8,83s14.08-14.33,14.08-32-6.3-32-14.08-32Z"/><path class="cls-5" d="M131.68,34c-4.63,1.39-14.57,2.36-26.09,2.36s-21.67-1-26.23-2.4"/><path class="cls-5" d="M79.36,67.32c4.34-1.41,14.49-2.4,26.33-2.4,11.54,0,21.49.94,26,2.3"/><line class="cls-5" x1="74.74" y1="51" x2="137.13" y2="51"/><rect class="cls-11" x="73.8" y="19" width="64" height="64"/></g></svg>