<?xml version="1.0" encoding="utf-8"?>
<!-- Generator: Adobe Illustrator 22.1.0, SVG Export Plug-In . SVG Version: 6.00 Build 0)  -->
<svg version="1.1" id="Layer_1" xmlns="http://www.w3.org/2000/svg" xmlns:xlink="http://www.w3.org/1999/xlink" x="0px" y="0px"
	 viewBox="0 0 16 16" enable-background="new 0 0 16 16" xml:space="preserve">
<path fill="#873C86" d="M8,10H0V2h14v4.305c-0.317-0.182-0.651-0.32-1-0.414V3H1v6h7V10z M13.781,12.414
	c0.339,0.172,0.645,0.385,0.918,0.637c0.273,0.253,0.507,0.534,0.699,0.844c0.192,0.311,0.341,0.644,0.445,1
	C15.948,15.252,16,15.62,16,16h-1c0-0.411-0.079-0.799-0.238-1.164c-0.159-0.364-0.374-0.682-0.645-0.953
	c-0.271-0.271-0.589-0.485-0.953-0.645C12.8,13.08,12.411,13,12,13s-0.8,0.08-1.164,0.238c-0.364,0.159-0.683,0.374-0.953,0.645
	c-0.271,0.271-0.485,0.589-0.645,0.953C9.079,15.201,9,15.589,9,16H8c0-0.38,0.052-0.748,0.156-1.105
	c0.104-0.356,0.253-0.689,0.445-1c0.192-0.31,0.426-0.591,0.699-0.844c0.273-0.252,0.579-0.465,0.918-0.637
	c-0.38-0.281-0.679-0.635-0.895-1.062C9.108,10.925,9,10.475,9,10c0-0.411,0.079-0.799,0.238-1.164
	c0.159-0.364,0.374-0.682,0.645-0.953c0.271-0.271,0.589-0.485,0.953-0.645C11.2,7.08,11.589,7,12,7s0.8,0.08,1.164,0.238
	c0.364,0.159,0.683,0.374,0.953,0.645c0.271,0.271,0.485,0.589,0.645,0.953C14.921,9.201,15,9.589,15,10
	c0,0.475-0.108,0.925-0.324,1.352C14.46,11.779,14.161,12.133,13.781,12.414z M12,12c0.271,0,0.528-0.053,0.773-0.16
	c0.245-0.106,0.457-0.25,0.637-0.43s0.323-0.391,0.43-0.633S14,10.276,14,10c0-0.271-0.054-0.528-0.16-0.773
	c-0.106-0.245-0.25-0.457-0.43-0.637s-0.392-0.323-0.637-0.43C12.528,8.054,12.271,8,12,8c-0.276,0-0.535,0.054-0.777,0.16
	C10.98,8.267,10.77,8.41,10.59,8.59s-0.323,0.392-0.43,0.637C10.054,9.472,10,9.729,10,10c0,0.276,0.054,0.535,0.16,0.777
	s0.25,0.453,0.43,0.633s0.391,0.323,0.633,0.43C11.465,11.947,11.724,12,12,12z"/>
</svg>
