<?xml version="1.0" standalone="no"?>
<!DOCTYPE svg PUBLIC "-//W3C//DTD SVG 20010904//EN"
 "http://www.w3.org/TR/2001/REC-SVG-20010904/DTD/svg10.dtd">
<svg version="1.0" xmlns="http://www.w3.org/2000/svg"
 width="299.000000pt" height="122.000000pt" viewBox="0 0 299.000000 122.000000"
 preserveAspectRatio="xMidYMid meet">

<g transform="translate(0.000000,122.000000) scale(0.100000,-0.100000)"
fill="#000000" stroke="none">
<path d="M605 1197 c-3 -12 -6 -76 -8 -142 l-3 -120 -2 128 c-1 70 -4 127 -7
127 -3 0 -25 -10 -48 -22 -23 -11 -73 -31 -112 -43 -80 -24 -72 -3 -59 -172 7
-98 16 -110 49 -73 23 25 69 37 173 44 82 6 122 18 122 36 0 31 55 -9 123 -89
35 -42 47 -18 47 99 0 110 -37 160 -117 160 -15 0 -43 16 -69 39 -56 49 -82
57 -89 28z"/>
<path d="M1720 746 c0 -79 4 -137 10 -141 6 -3 10 1 10 10 0 15 2 15 22 1 59
-42 128 4 128 84 0 33 -15 70 -34 82 -19 13 -74 9 -90 -7 -23 -24 -26 -19 -26
45 0 33 -4 60 -10 60 -6 0 -10 -51 -10 -134z m125 9 c27 -26 32 -60 13 -99
-22 -50 -89 -46 -107 6 -19 55 12 113 62 117 4 1 19 -10 32 -24z"/>
<path d="M1940 746 c0 -145 14 -191 22 -74 5 59 10 75 28 90 23 19 58 16 72
-6 4 -6 8 -44 8 -83 0 -42 4 -73 10 -73 13 0 13 146 0 171 -8 14 -21 19 -50
19 -21 0 -42 -4 -45 -10 -15 -24 -25 -6 -25 45 0 30 -4 55 -10 55 -6 0 -10
-51 -10 -134z"/>
<path d="M1537 803 c-14 -37 -37 -98 -51 -135 -15 -39 -21 -68 -15 -68 6 0 18
18 26 40 l16 40 59 0 58 0 16 -40 c14 -35 34 -54 34 -32 0 20 -96 256 -106
259 -6 2 -23 -27 -37 -64z m77 -80 c7 -22 5 -23 -43 -23 l-50 0 13 38 c8 20
19 51 26 67 l12 30 18 -45 c9 -25 21 -55 24 -67z"/>
<path d="M2165 779 c-11 -17 0 -20 29 -9 34 12 66 -2 66 -30 0 -15 -9 -21 -42
-26 -69 -11 -100 -61 -60 -97 23 -21 65 -22 82 -2 10 12 7 13 -22 9 -59 -10
-76 46 -21 67 48 18 65 12 62 -23 -3 -49 0 -68 11 -68 15 0 13 163 -2 178 -15
15 -94 16 -103 1z"/>
<path d="M2320 787 c0 -3 16 -46 35 -96 39 -100 36 -129 -13 -155 -32 -17 -14
-29 18 -13 17 9 36 44 72 131 51 126 53 136 39 136 -5 0 -21 -34 -36 -75 -15
-41 -31 -75 -35 -75 -3 0 -18 32 -32 72 -14 40 -30 74 -36 76 -7 2 -12 1 -12
-1z"/>
<path d="M750 694 c-40 -40 -49 -45 -80 -41 -19 2 -42 7 -50 10 -13 6 -15 -4
-15 -63 0 -78 6 -83 68 -56 25 10 110 90 105 99 0 1 9 21 20 43 19 38 20 54 2
54 -3 0 -26 -21 -50 -46z"/>
<path d="M1521 462 c-18 -34 -61 -155 -57 -159 3 -3 12 9 21 26 13 25 22 31
49 31 29 0 36 -5 45 -32 6 -17 14 -29 17 -25 6 5 -55 177 -62 177 -2 0 -8 -8
-13 -18z m38 -84 c1 -5 -12 -8 -29 -8 -35 0 -35 -1 -14 48 l16 37 13 -35 c8
-19 14 -38 14 -42z"/>
<path d="M2281 448 c0 -9 -7 -19 -13 -21 -10 -4 -10 -7 -1 -14 6 -5 13 -31 15
-58 2 -41 7 -50 23 -53 18 -2 18 -2 3 8 -24 15 -26 100 -3 100 8 0 15 5 15 10
0 6 -6 10 -14 10 -8 0 -17 8 -19 18 -4 15 -5 15 -6 0z"/>
<path d="M2631 448 c0 -9 -7 -19 -13 -21 -10 -4 -10 -7 -1 -14 6 -5 13 -31 15
-58 2 -41 7 -50 23 -53 18 -2 18 -2 3 8 -24 15 -26 100 -3 100 8 0 15 5 15 10
0 6 -6 10 -14 10 -8 0 -17 8 -19 18 -4 15 -5 15 -6 0z"/>
<path d="M390 420 c-77 -21 -141 -78 -178 -160 -20 -43 -26 -75 -30 -157 l-5
-103 433 0 433 0 -5 108 c-4 85 -10 117 -29 157 -32 68 -99 132 -157 149 l-47
13 -23 -47 c-33 -70 -38 -72 -109 -50 -60 18 -62 18 -123 -1 -73 -22 -78 -20
-112 50 -21 43 -26 47 -48 41z"/>
<path d="M1652 414 c-42 -29 -21 -114 28 -114 10 0 22 4 25 10 3 5 0 7 -9 4
-26 -10 -56 14 -56 45 0 33 32 66 55 57 9 -3 13 -2 10 4 -9 14 -27 12 -53 -6z"/>
<path d="M1762 414 c-42 -29 -21 -114 28 -114 10 0 22 4 25 10 3 5 0 7 -9 4
-26 -10 -56 14 -56 45 0 33 32 66 55 57 9 -3 13 -2 10 4 -9 14 -27 12 -53 -6z"/>
<path d="M1867 412 c-21 -23 -22 -76 -1 -96 36 -37 94 -6 94 51 0 54 -59 83
-93 45z m67 -8 c30 -30 10 -94 -29 -94 -21 0 -45 29 -45 55 0 26 24 55 45 55
7 0 21 -7 29 -16z"/>
<path d="M1991 387 c0 -27 4 -57 9 -68 12 -22 40 -25 58 -7 10 10 15 10 22 -2
7 -10 9 8 9 55 -1 70 -1 70 -9 22 -9 -51 -24 -77 -46 -77 -19 0 -28 19 -35 75
l-6 50 -2 -48z"/>
<path d="M2130 366 c0 -42 4 -65 10 -61 6 3 10 25 10 49 0 23 5 47 10 54 6 6
7 10 4 7 -4 -3 -13 0 -21 6 -11 9 -13 -1 -13 -55z"/>
<path d="M2195 416 c13 -9 21 -32 26 -67 l6 -54 2 56 c1 56 -10 79 -38 79 -11
0 -10 -3 4 -14z"/>
<path d="M2370 420 c-11 -7 -7 -9 15 -7 44 3 47 -29 3 -41 -26 -6 -34 -14 -36
-35 -4 -33 21 -46 51 -28 16 10 21 10 28 -1 13 -19 11 79 -1 103 -12 21 -36
24 -60 9z m54 -59 c10 -15 -29 -55 -47 -48 -24 9 -21 36 6 47 29 12 35 12 41
1z"/>
<path d="M2480 366 c0 -42 4 -65 10 -61 6 3 10 25 10 49 0 23 5 47 10 54 6 6
7 10 4 7 -4 -3 -13 0 -21 6 -11 9 -13 -1 -13 -55z"/>
<path d="M2545 416 c13 -9 21 -32 26 -67 l6 -54 2 56 c1 56 -10 79 -38 79 -11
0 -10 -3 4 -14z"/>
</g>
</svg>
